<svg width="80" height="80" viewBox="0 0 80 80" fill="none" xmlns="http://www.w3.org/2000/svg">
<circle cx="40" cy="40" r="39.5" fill="#FFDC2A" stroke="#E1A004"/>
<g filter="url(#filter0_i_204_22)">
<circle cx="40" cy="40" r="31" fill="#FFB609"/>
</g>
<g filter="url(#filter1_d_204_22)">
<path d="M36.3638 43.1962H26.6774C25.92 43.1962 25.4375 42.3869 25.7977 41.7207L36.7165 21.5244C36.8912 21.2013 37.2289 21 37.5962 21H47.8285C48.5949 21 49.0765 21.8268 48.6983 22.4934L42.0671 34.1834C41.6889 34.8501 42.1705 35.6768 42.9369 35.6768H52.6896C53.5654 35.6768 54.0181 36.7228 53.4187 37.3613L32.5843 59.5539C31.8092 60.3796 30.4749 59.4837 30.9458 58.4537L37.2733 44.612C37.5761 43.9497 37.0921 43.1962 36.3638 43.1962Z" fill="white"/>
<path d="M36.3638 43.1962H26.6774C25.92 43.1962 25.4375 42.3869 25.7977 41.7207L36.7165 21.5244C36.8912 21.2013 37.2289 21 37.5962 21H47.8285C48.5949 21 49.0765 21.8268 48.6983 22.4934L42.0671 34.1834C41.6889 34.8501 42.1705 35.6768 42.9369 35.6768H52.6896C53.5654 35.6768 54.0181 36.7228 53.4187 37.3613L32.5843 59.5539C31.8092 60.3796 30.4749 59.4837 30.9458 58.4537L37.2733 44.612C37.5761 43.9497 37.0921 43.1962 36.3638 43.1962Z" stroke="#EBA204" stroke-width="2"/>
</g>
<defs>
<filter id="filter0_i_204_22" x="9" y="9" width="62" height="62" filterUnits="userSpaceOnUse" color-interpolation-filters="sRGB">
<feFlood flood-opacity="0" result="BackgroundImageFix"/>
<feBlend mode="normal" in="SourceGraphic" in2="BackgroundImageFix" result="shape"/>
<feColorMatrix in="SourceAlpha" type="matrix" values="0 0 0 0 0 0 0 0 0 0 0 0 0 0 0 0 0 0 127 0" result="hardAlpha"/>
<feOffset dy="4"/>
<feComposite in2="hardAlpha" operator="arithmetic" k2="-1" k3="1"/>
<feColorMatrix type="matrix" values="0 0 0 0 0.883301 0 0 0 0 0.626229 0 0 0 0 0.0170031 0 0 0 1 0"/>
<feBlend mode="normal" in2="shape" result="effect1_innerShadow_204_22"/>
</filter>
<filter id="filter1_d_204_22" x="24.6746" y="20" width="30.0189" height="42.8856" filterUnits="userSpaceOnUse" color-interpolation-filters="sRGB">
<feFlood flood-opacity="0" result="BackgroundImageFix"/>
<feColorMatrix in="SourceAlpha" type="matrix" values="0 0 0 0 0 0 0 0 0 0 0 0 0 0 0 0 0 0 127 0" result="hardAlpha"/>
<feOffset dy="2"/>
<feComposite in2="hardAlpha" operator="out"/>
<feColorMatrix type="matrix" values="0 0 0 0 0.921569 0 0 0 0 0.635294 0 0 0 0 0.0156863 0 0 0 1 0"/>
<feBlend mode="normal" in2="BackgroundImageFix" result="effect1_dropShadow_204_22"/>
<feBlend mode="normal" in="SourceGraphic" in2="effect1_dropShadow_204_22" result="shape"/>
</filter>
</defs>
</svg>
