<svg width="60" height="60" viewBox="0 0 60 60" fill="none" xmlns="http://www.w3.org/2000/svg">
<rect width="60" height="60" rx="30" fill="#4F36F7"/>
<path fill-rule="evenodd" clip-rule="evenodd" d="M28.7181 22.7772V32.4337H13.1191C13.1478 29.2575 13.2967 26.8989 13.4557 25.2478C13.6659 23.0655 15.2662 21.4134 17.3459 21.0317C17.015 20.319 16.83 19.5245 16.83 18.6874C16.83 15.6325 19.1639 13.1146 22.4028 13.1146C25.0883 13.1146 27.2316 14.6773 28.6503 16.3999C29.109 16.957 29.5054 17.5457 29.8333 18.1316C30.1611 17.5457 30.5575 16.957 31.0163 16.3999C32.4349 14.6773 34.5782 13.1146 37.2637 13.1146C40.5025 13.1146 42.8365 15.6325 42.8365 18.6874C42.8365 19.5247 42.6515 20.3192 42.3205 21.0319C44.3997 21.414 45.9994 23.0659 46.2096 25.2478C46.3685 26.8989 46.5174 29.2575 46.5462 32.4337H30.9472V22.7772C30.5838 22.7753 30.2125 22.7743 29.8333 22.7743C29.4536 22.7743 29.0818 22.7753 28.7181 22.7772ZM19.0591 18.6874C19.0591 16.8178 20.4404 15.3437 22.4028 15.3437C24.1756 15.3437 25.7475 16.3816 26.9295 17.817C27.5124 18.5247 27.9692 19.2947 28.277 20.0026C28.3609 20.1954 28.4313 20.3782 28.4896 20.5492C24.8319 20.5723 21.9695 20.6877 19.8286 20.8216C19.3472 20.242 19.0591 19.4991 19.0591 18.6874ZM39.8378 20.8217C37.697 20.6878 34.8347 20.5723 31.1769 20.5492C31.2352 20.3782 31.3056 20.1954 31.3895 20.0026C31.6973 19.2947 32.1541 18.5247 32.737 17.817C33.919 16.3816 35.4909 15.3437 37.2637 15.3437C39.2261 15.3437 40.6074 16.8178 40.6074 18.6874C40.6074 19.4991 40.3192 20.2421 39.8378 20.8217Z" fill="#FFDD1D"/>
<path d="M28.7181 34.6628V46.5487C23.656 46.5223 20.093 46.3193 17.8384 46.1304C15.5229 45.9364 13.6822 44.2004 13.4557 41.8487C13.2967 40.1976 13.1478 37.8391 13.1191 34.6628H28.7181Z" fill="#AF8BFF"/>
<path d="M30.9471 34.6628V46.5487C36.0092 46.5223 39.5722 46.3193 41.8268 46.1304C44.1423 45.9364 45.983 44.2004 46.2095 41.8487C46.3684 40.1976 46.5173 37.8391 46.5461 34.6628H30.9471Z" fill="#AF8BFF"/>
</svg>
