<svg width="60" height="60" viewBox="0 0 60 60" fill="none" xmlns="http://www.w3.org/2000/svg">
<rect width="60" height="60" rx="30" fill="#4F36F7"/>
<g clip-path="url(#clip0_236_12)">
<path fill-rule="evenodd" clip-rule="evenodd" d="M14.0772 24.3929L15.345 25.0241L16.706 28.705C17.6632 31.2936 21.3244 31.2936 22.2815 28.705L23.6425 25.0241L26.5814 23.5611C28.7782 22.4675 28.7782 19.3333 26.5814 18.2397L23.6425 16.7766L22.8557 14.6486C24.9955 13.6536 27.381 13.0982 29.8962 13.0982C32.4116 13.0982 34.7972 13.6537 36.9371 14.6487L36.1503 16.7766L33.2113 18.2397C31.0145 19.3333 31.0145 22.4675 33.2113 23.5611L36.1503 25.0241L37.5113 28.705C38.4684 31.2936 42.1296 31.2936 43.0867 28.705L44.4477 25.0241L45.7153 24.3931C46.2983 26.0938 46.6147 27.9183 46.6147 29.8167C46.6147 39.0501 39.1296 46.5352 29.8962 46.5352C20.6629 46.5352 13.1777 39.0501 13.1777 29.8167C13.1777 27.9182 13.4942 26.0938 14.0772 24.3929ZM21.7062 33.6831C22.2778 33.179 23.1224 32.9321 23.9655 33.0833C25.5431 33.3661 27.6321 33.6329 29.8959 33.6329C32.1597 33.6329 34.2487 33.3661 35.8263 33.0833C36.6693 32.9321 37.514 33.179 38.0855 33.6831C38.6675 34.1965 38.9691 34.9863 38.6668 35.8519C37.4012 39.4759 33.9527 42.0766 29.8959 42.0766C25.8391 42.0766 22.3906 39.4759 21.125 35.8519C20.8227 34.9863 21.1243 34.1965 21.7062 33.6831Z" fill="#AF8BFF"/>
<path d="M39.6014 13.8687C39.8408 13.2216 40.7561 13.2216 40.9953 13.8687L42.6628 18.3784L46.3926 20.2352C46.9418 20.5086 46.9418 21.2921 46.3926 21.5655L42.6628 23.4223L40.9953 27.932C40.7561 28.5791 39.8408 28.5791 39.6014 27.932L37.9341 23.4223L34.2041 21.5655C33.6549 21.2921 33.6549 20.5086 34.2041 20.2352L37.9341 18.3784L39.6014 13.8687Z" fill="#FFDD1D"/>
<path d="M20.1902 13.8687C19.951 13.2216 19.0357 13.2216 18.7964 13.8687L17.129 18.3784L13.3991 20.2352C12.8498 20.5086 12.8498 21.2921 13.3991 21.5655L17.129 23.4223L18.7964 27.932C19.0357 28.5791 19.951 28.5791 20.1902 27.932L21.8577 23.4223L25.5876 21.5655C26.1367 21.2921 26.1367 20.5086 25.5876 20.2352L21.8577 18.3784L20.1902 13.8687Z" fill="#FFDD1D"/>
</g>
<defs>
<clipPath id="clip0_236_12">
<rect width="35.6661" height="35.6661" fill="white" transform="translate(12.063 11.9836)"/>
</clipPath>
</defs>
</svg>
