<svg width="60" height="60" viewBox="0 0 60 60" fill="none" xmlns="http://www.w3.org/2000/svg">
<rect width="60" height="60" rx="30" fill="#4F36F7"/>
<path d="M35.235 13.1799C32.5143 13.0233 27.8714 12.8616 23.2939 13.1963C21.7719 13.3076 20.4578 14.2914 19.9165 15.7143C17.6083 21.7805 16.5087 27.376 16.0402 30.3404C15.7463 32.2002 17.098 33.8584 18.9572 33.986C20.546 34.0951 22.8793 34.208 25.6039 34.1932C25.3136 36.5515 25.0111 39.6974 24.7108 43.0816C24.4419 46.1133 28.0873 47.9358 30.2572 45.6107C35.8276 39.642 40.9342 33.0044 43.7348 29.2215C45.2754 27.1406 43.9186 24.2296 41.2879 24.1612C40.0752 24.1296 38.5877 24.1115 36.8375 24.1266C37.3552 21.8687 37.8231 19.4165 38.2534 17.049C38.6027 15.1263 37.2255 13.2944 35.235 13.1799Z" fill="#FFDD1D"/>
</svg>
