<svg width="243" height="51" viewBox="0 0 243 51" fill="none" xmlns="http://www.w3.org/2000/svg">
<path d="M186.477 0.208663C187.89 0.212811 189.303 0.235174 190.715 0.265592L190.717 0.269671C194.955 0.362725 199.191 0.545209 203.428 0.676331C207.842 0.817294 212.257 0.888021 216.672 0.927888C218.261 0.938258 219.851 0.965472 221.44 0.97469L222.592 0.983902C225.051 1.02458 226.146 3.67677 225.927 6.10058C228.121 6.13538 230.314 6.16603 232.508 6.19299C233.616 6.23751 234.726 6.19481 235.834 6.23814C236.066 6.24689 236.468 5.97096 236.531 6.28561C237.094 9.12782 237.648 14.0329 237.574 15.0164C237.5 16 236.287 16.81 236.287 16.81C237.404 16.8335 238.521 16.8543 239.638 16.8681C243.822 16.9444 244.073 24.5969 240.544 25.7554C240.833 27.8721 240.09 30.2609 238.328 30.9767C238.936 32.1364 239.108 33.7955 238.621 36.4579C238.406 37.6371 237.212 37.8792 236.508 38.5898C235.992 38.7375 235.481 38.922 234.961 39.0334C234.642 39.1013 234.323 39.1603 234.004 39.2225C233.868 39.7007 233.406 39.6774 232.528 39.6331L232.435 39.6284C233.03 47.3388 231.661 47.431 228.796 47.3734C228.542 47.3681 226.632 47.2803 226.471 47.2711C225.079 47.1988 223.687 47.1039 222.295 47.0126C222.27 47.1168 222.253 47.1875 222.228 47.2954L222.253 47.4466C222.801 50.6782 222.832 50.8622 221.519 50.3858L221.518 50.3875C221.378 51.0233 220.572 50.3334 220.098 50.3006C219.34 50.2486 218.582 50.1848 217.824 50.1338C214.809 49.9317 214.599 49.9261 214.047 49.8761C211.479 49.7409 208.913 49.5308 206.351 49.2517C202.458 48.8155 198.568 48.3056 194.671 47.9481C193.235 47.8331 191.799 47.729 190.362 47.6253C185.713 47.4799 181.062 47.4541 176.412 47.4448C176.578 50.119 175.701 49.8438 173.949 49.718C173.815 50.0174 173.44 49.8114 173.093 49.6659C172.642 49.6397 172.191 49.6136 171.74 49.5876C168.106 49.4098 164.472 49.2612 160.837 49.1172C153.373 49.0236 145.908 49.2408 138.444 49.3703C133.149 49.427 127.852 49.5518 122.558 49.3633C120.444 49.2881 117.57 49.1203 115.437 49.0035C110.584 48.6067 105.73 48.2379 100.877 47.8427C98.842 47.9504 96.8077 48.0846 94.7758 48.2936C87.3182 49.0019 79.8548 49.5701 72.3933 50.1856C69.8623 50.3926 66.4734 50.6885 63.9388 50.8177C58.4648 51.0948 52.9825 51.0268 47.5093 50.8085C43.5068 50.5717 39.5054 50.3078 35.5013 50.123C30.3854 49.8869 32.9323 50.0123 28.1628 49.88C27.2621 49.8549 26.3616 49.8194 25.4609 49.7899C22.3652 49.7079 12.2688 49.677 9.17236 49.6978C5.47198 49.6339 5.67331 44.211 8 42C8.07948 41.9245 8.33259 41.4759 8 41.5C6.47918 41.61 5.64275 41.4975 5.5 41.5C5.02116 41.5083 4.5 41.5 3.87129 41.5123C3.32549 41.366 2.31064 41.6369 2.27138 40.8583C2.15819 38.6146 2.68072 36.4208 3.09717 34.2182C-1.21939 33.753 -0.970958 25.0183 3.51127 25.178C3.99716 25.2075 4.48326 25.2267 4.9694 25.2474C5.2292 25.2603 5.4888 25.2776 5.74857 25.2937C5.72181 24.6563 5.77984 24.0155 5.93424 23.4133C3.42924 21.813 3.42411 16.1717 6.50314 14.9809C5.66566 12.2889 5.55028 8.94907 8.5 9H11C12.7587 9.07973 11.5915 9.04508 13.3505 9.10983C12.2589 6.40741 13.293 2.23105 16.3984 2.28451C18.0195 2.40513 29.6377 2.25962 31.2557 2.11559C37.1457 1.61688 43.0372 1.17822 48.9315 0.799789C56.0986 0.216603 63.2768 0.0937773 70.4529 0.000216888C78.2233 -0.00824042 85.9911 0.231347 93.7561 0.595035C100.479 1.01972 107.204 1.3753 113.929 1.73034C120.446 2.07327 126.967 2.24182 133.487 2.37594C139.774 2.4901 146.055 1.95931 152.337 1.69616C153.467 1.65952 154.597 1.61507 155.727 1.58603C158.937 1.50123 159.154 1.55216 162.305 1.40076C165.236 1.25998 168.166 1.02483 171.094 0.783297C176.216 0.296921 181.347 0.217881 186.477 0.208663Z" fill="black"/>
</svg>
